<svg width="34" height="34" viewBox="0 0 34 34" fill="none" xmlns="http://www.w3.org/2000/svg">
<circle cx="17" cy="17" r="16.655" fill="white" stroke="#D4D4D5" stroke-width="0.69"/>
<path fill-rule="evenodd" clip-rule="evenodd" d="M20.1273 10.244C20.537 9.55696 21.445 9.33112 22.1553 9.73959L23.78 10.6738C24.4903 11.0823 24.734 11.9704 24.3244 12.6574L22.2679 16.1061C22.0516 16.4688 21.5063 16.4493 21.3079 16.0718L20.562 14.6532C20.4918 14.5197 20.3488 14.4375 20.1959 14.4427L18.571 14.4981C18.1388 14.5129 17.8546 14.0554 18.0708 13.6928L20.1273 10.244Z" fill="#30333F"/>
<path d="M16.936 11.9987C12.8093 7.45297 9 10.1046 9 14.2716C9 18.4385 12.2537 22.416 16.936 25.0677C21.6182 22.416 24.8719 18.4385 24.8719 14.2716C24.8719 10.1046 21.0626 7.45297 16.936 11.9987Z" stroke="#30333F" stroke-linecap="round" stroke-linejoin="round"/>
</svg>
